# xmcd CD database file
#
# Track frame offsets:
#	225
#	16709
#	34359
#	50908
#	66183
#	81611
#	98258
#	114048
#	132363
#	148371
#	162563
#	176365
#	196675
#	214697
#
# Disc length: 3096 seconds
#
# Revision: 0
# Processed by: cddbd v1.5.1PL2 Copyright (c) Steve Scherf et al.
# Submitted via: CDex 1.51
#
DISCID=c30c150e
DTITLE=Relaxing - Wellness Music and Nature Sounds
DYEAR=2002
DGENRE=New Age
TTITLE0=After a Night of Lonely Dreams
TTITLE1=September Feeling
TTITLE2=A Day In May Under A Lucky Star
TTITLE3=A Sunny Noon In June
TTITLE4=The Sunshine Of My Country
TTITLE5=Rainbows Never Stay Forever
TTITLE6=The Charming Sound Of Magic Strings
TTITLE7=The Doorway To Your Dreams
TTITLE8=The Seventh Heaven Of Delight
TTITLE9=Walking On The Rainbow Of My Life
TTITLE10=All The Wonders Of This World
TTITLE11=Guitar Players Lullaby
TTITLE12=Dreamning And Drifting In The Air
TTITLE13=Sunrise n The Forest
EXTD=YEAR: 2002
EXTT0=
EXTT1=
EXTT2=
EXTT3=
EXTT4=
EXTT5=
EXTT6=
EXTT7=
EXTT8=
EXTT9=
EXTT10=
EXTT11=
EXTT12=
EXTT13=
PLAYORDER=
